<mxfile host="app.diagrams.net" agent="Mozilla/5.0 (Windows NT 10.0; Win64; x64) AppleWebKit/537.36 (KHTML, like Gecko) Chrome/136.0.0.0 Safari/537.36 Edg/136.0.0.0" version="27.0.6">
  <diagram name="Page-1" id="5_F7UyvFgVzA78v7fz38">
    <mxGraphModel dx="1179" dy="622" grid="1" gridSize="10" guides="1" tooltips="1" connect="1" arrows="1" fold="1" page="1" pageScale="1" pageWidth="850" pageHeight="1100" math="0" shadow="0">
      <root>
        <mxCell id="0" />
        <mxCell id="1" parent="0" />
        <mxCell id="R8-eEjEKegjlY97keTf1-1" value="Mahasiswa" style="shape=umlActor;verticalLabelPosition=bottom;verticalAlign=top;html=1;outlineConnect=0;" parent="1" vertex="1">
          <mxGeometry x="90" y="220" width="60" height="100" as="geometry" />
        </mxCell>
        <mxCell id="R8-eEjEKegjlY97keTf1-4" value="UC01 Registrasi &amp;amp; Login" style="ellipse;whiteSpace=wrap;html=1;" parent="1" vertex="1">
          <mxGeometry x="240" y="120" width="180" height="80" as="geometry" />
        </mxCell>
        <mxCell id="R8-eEjEKegjlY97keTf1-5" value="UC02 Kelola Profil &amp;amp; Preferensi" style="ellipse;whiteSpace=wrap;html=1;" parent="1" vertex="1">
          <mxGeometry x="240" y="250" width="180" height="80" as="geometry" />
        </mxCell>
        <mxCell id="R8-eEjEKegjlY97keTf1-6" value="UC03 Sinkronisasi data Eksternal" style="ellipse;whiteSpace=wrap;html=1;" parent="1" vertex="1">
          <mxGeometry x="240" y="380" width="180" height="80" as="geometry" />
        </mxCell>
        <mxCell id="R8-eEjEKegjlY97keTf1-7" value="UC04 Input &amp;amp; Kelola Tugas" style="ellipse;whiteSpace=wrap;html=1;" parent="1" vertex="1">
          <mxGeometry x="245" y="510" width="180" height="80" as="geometry" />
        </mxCell>
        <mxCell id="R8-eEjEKegjlY97keTf1-8" value="UC05 Terima Rekomendasi" style="ellipse;whiteSpace=wrap;html=1;" parent="1" vertex="1">
          <mxGeometry x="240" y="650" width="180" height="80" as="geometry" />
        </mxCell>
        <mxCell id="R8-eEjEKegjlY97keTf1-9" value="UC06 Terima Notifikasi" style="ellipse;whiteSpace=wrap;html=1;" parent="1" vertex="1">
          <mxGeometry x="240" y="790" width="180" height="80" as="geometry" />
        </mxCell>
        <mxCell id="R8-eEjEKegjlY97keTf1-10" value="UC06 Terima Notifikasi" style="ellipse;whiteSpace=wrap;html=1;" parent="1" vertex="1">
          <mxGeometry x="240" y="920" width="180" height="80" as="geometry" />
        </mxCell>
      </root>
    </mxGraphModel>
  </diagram>
</mxfile>
